<?xml version="1.0" standalone="no"?>
<!DOCTYPE svg PUBLIC "-//W3C//DTD SVG 20010904//EN"
 "http://www.w3.org/TR/2001/REC-SVG-20010904/DTD/svg10.dtd">
<svg version="1.0" xmlns="http://www.w3.org/2000/svg"
 width="1280.000000pt" height="720.000000pt" viewBox="0 0 1280.000000 720.000000"
 preserveAspectRatio="xMidYMid meet">

<g transform="translate(0.000000,720.000000) scale(0.100000,-0.100000)"
fill="#000000" stroke="none">
<path d="M1300 4488 c-168 -21 -296 -85 -412 -206 -87 -91 -143 -193 -179
-327 -21 -76 -22 -104 -26 -567 l-5 -488 246 0 246 0 0 468 c0 448 1 469 21
512 42 92 107 134 209 134 77 0 135 -26 175 -78 53 -70 55 -91 55 -583 l0
-453 246 0 245 0 -4 488 c-4 551 -6 572 -80 722 -72 149 -226 282 -394 342
-54 19 -219 49 -253 47 -8 -1 -49 -6 -90 -11z"/>
<path d="M2280 4494 c-74 -11 -190 -37 -190 -44 0 -3 12 -17 26 -31 75 -68
154 -231 172 -352 l7 -48 60 -3 c107 -5 181 -61 211 -163 8 -26 14 -49 14 -50
0 -2 0 -205 0 -453 l0 -450 245 0 245 0 0 423 c0 427 -7 553 -35 662 -54 210
-233 396 -450 470 -93 32 -232 49 -305 39z"/>
<path d="M7535 4489 c-162 -21 -294 -85 -400 -194 -107 -109 -161 -213 -200
-386 -15 -62 -18 -151 -22 -541 l-5 -468 245 0 246 0 3 468 c3 424 5 471 21
507 21 47 70 100 112 123 41 22 159 21 201 0 45 -24 101 -91 113 -135 7 -24
11 -205 11 -500 l0 -463 251 0 251 0 -5 473 c-6 474 -9 525 -46 647 -41 131
-142 263 -271 350 -142 96 -334 142 -505 119z"/>
<path d="M8485 4490 c-55 -9 -141 -28 -156 -36 -4 -2 11 -23 33 -46 79 -85
145 -228 163 -348 l7 -45 62 -1 c35 -1 75 -8 93 -17 43 -22 97 -89 111 -136 8
-27 12 -178 12 -500 l0 -461 248 0 247 0 -6 502 c-6 556 -7 565 -74 703 -126
259 -450 428 -740 385z"/>
<path d="M3490 3615 l0 -715 250 0 250 0 0 715 0 715 -250 0 -250 0 0 -715z"/>
<path d="M4402 3823 c4 -438 6 -516 21 -565 77 -265 273 -447 550 -512 l27 -6
0 248 0 248 -30 22 c-16 13 -42 46 -57 75 l-28 52 -3 473 -3 472 -240 0 -240
0 3 -507z"/>
<path d="M5350 3890 c0 -289 -4 -457 -11 -492 -13 -59 -45 -116 -83 -146 l-26
-20 0 -252 c0 -167 3 -249 10 -245 6 4 43 15 82 26 212 59 377 214 458 430 50
135 52 165 57 667 l5 472 -246 0 -246 0 0 -440z"/>
<path d="M9720 3615 l0 -715 250 0 250 0 0 715 0 715 -250 0 -250 0 0 -715z"/>
<path d="M10630 3888 c0 -482 7 -578 54 -701 35 -93 71 -151 139 -224 96 -102
200 -164 340 -203 l67 -19 0 248 0 247 -31 30 c-17 16 -41 47 -52 69 -22 39
-22 50 -25 518 l-3 477 -244 0 -245 0 0 -442z"/>
<path d="M11578 3853 c-3 -533 -1 -516 -75 -588 l-33 -32 0 -253 c0 -201 3
-250 13 -243 6 6 37 16 67 23 233 52 417 245 492 515 21 76 22 102 26 568 l3
487 -245 0 -245 0 -3 -477z"/>
</g>
</svg>
